
        <svg xmlns="http://www.w3.org/2000/svg" xmlns:xlink="http://www.w3.org/1999/xlink" version="1.1" width="3193.548387096774" height="1136.5696135604271" viewBox="0 0 3193.548387096774 1136.5696135604271">
			
			<g transform="scale(9.677419354838708) translate(10, 10)">
				<defs id="SvgjsDefs1340"/><g id="SvgjsG1341" featureKey="X3o6dM-0" transform="matrix(5.88086550455647,0,0,5.88086550455647,-0.47046861642663673,-47.1645328217287)" fill="#000"><path d="M10.78 9.92 q0.12 -0.2 0.28 -0.43 t0.36 -0.43 t0.43 -0.34 t0.47 -0.14 q0.46 0 0.52 0.43 t-0.22 1.19 q-0.26 0.72 -0.75 1.66 t-1.2 1.98 t-1.63 2.12 t-2.03 2.05 t-2.39 1.78 t-2.7 1.33 q-0.24 0.1 -0.33 -0.02 t-0.09 -0.22 q0 -0.16 0.07 -0.29 t0.17 -0.23 l0 0.04 q1.44 -1.08 2.88 -2.36 t2.54 -2.62 q-0.88 -0.26 -1.87 -0.8 t-1.94 -1.29 t-1.77 -1.67 t-1.34 -1.96 q-0.1 -0.16 -0.13 -0.35 t-0.03 -0.37 q0 -0.2 0.12 -0.37 t0.28 -0.3 t0.35 -0.21 t0.33 -0.08 q0.18 0 0.5 0.44 t0.76 1.12 t1 1.5 t1.22 1.57 t1.41 1.34 t1.59 0.79 q0.84 -1.04 1.58 -2.2 t1.56 -2.66 z M11.64 15.34 q0 -0.34 0.25 -0.51 t0.55 -0.2 t0.54 0.08 t0.22 0.33 q-0.04 0.64 -0.12 1.34 t-0.16 1.3 t-0.1 1.01 t0.1 0.45 q0.1 0.04 0.22 -0.15 t0.24 -0.51 t0.25 -0.72 t0.25 -0.8 t0.22 -0.76 t0.18 -0.58 q0.02 -0.3 0.27 -0.37 t0.53 0.01 t0.49 0.24 t0.19 0.34 q-0.08 0.36 -0.15 0.9 t-0.09 1.04 t0.03 0.86 t0.23 0.36 q0.12 0 0.29 -0.31 t0.33 -0.73 t0.3 -0.84 t0.18 -0.64 q0.04 -0.2 0.18 -0.27 t0.28 -0.04 t0.23 0.15 t0.03 0.3 q-0.04 0.16 -0.17 0.6 t-0.34 0.96 t-0.5 1 t-0.65 0.7 q-0.22 0.14 -0.49 0.12 t-0.52 -0.15 t-0.44 -0.38 t-0.25 -0.59 q-0.06 -0.3 -0.06 -0.68 q-0.18 0.56 -0.42 1.06 t-0.56 0.82 q-0.2 0.22 -0.47 0.25 t-0.52 -0.09 t-0.44 -0.35 t-0.25 -0.53 t-0.06 -0.76 t0.03 -1 t0.08 -1.12 t0.07 -1.14 z M16.939999999999998 15.26 q0.08 -0.44 0.38 -0.69 t0.61 -0.34 t0.54 -0.02 t0.17 0.31 q-0.06 0.28 -0.14 0.76 t-0.14 0.98 t-0.1 0.95 t-0.04 0.65 q0.08 -0.28 0.2 -0.58 t0.25 -0.59 t0.27 -0.53 t0.26 -0.38 q0.14 -0.2 0.43 -0.31 t0.54 -0.11 t0.41 0.14 t0.06 0.4 q-0.04 0.12 -0.08 0.46 t-0.08 0.74 q0.12 -0.28 0.32 -0.62 t0.4 -0.65 t0.37 -0.57 t0.27 -0.38 q0.14 -0.2 0.42 -0.33 t0.54 -0.13 t0.44 0.13 t0.16 0.43 q-0.02 0.14 -0.07 0.48 t-0.13 0.78 t-0.15 0.92 t-0.12 0.87 t-0.06 0.65 t0.07 0.26 q0.12 0 0.32 -0.28 t0.39 -0.67 t0.36 -0.81 t0.25 -0.68 q0.06 -0.18 0.19 -0.25 t0.25 -0.04 t0.2 0.14 t0.04 0.29 q-0.06 0.28 -0.27 0.79 t-0.51 1.03 t-0.66 0.94 t-0.74 0.48 q-0.42 0.08 -0.67 -0.1 t-0.36 -0.52 t-0.13 -0.77 t0.02 -0.85 t0.1 -0.75 t0.12 -0.49 q-0.1 0.04 -0.3 0.38 t-0.41 0.75 t-0.39 0.8 t-0.24 0.53 l0 -0.02 q-0.04 0.12 -0.19 0.27 t-0.35 0.24 t-0.37 0.09 t-0.23 -0.2 t-0.08 -0.55 t-0.02 -0.68 t0.01 -0.6 t-0.01 -0.33 q-0.1 0.04 -0.22 0.36 t-0.25 0.72 t-0.23 0.82 t-0.14 0.66 q-0.04 0.26 -0.27 0.39 t-0.5 0.13 t-0.48 -0.14 t-0.19 -0.44 q0.02 -0.34 -0.01 -0.91 t-0.06 -1.19 t-0.03 -1.22 t0.06 -1 z M38.62 9.92 q0.12 -0.2 0.28 -0.43 t0.36 -0.43 t0.43 -0.34 t0.47 -0.14 q0.46 0 0.52 0.43 t-0.22 1.19 q-0.26 0.72 -0.75 1.66 t-1.2 1.98 t-1.63 2.12 t-2.03 2.05 t-2.39 1.78 t-2.7 1.33 q-0.24 0.1 -0.33 -0.02 t-0.09 -0.22 q0 -0.16 0.07 -0.29 t0.17 -0.23 l0 0.04 q1.44 -1.08 2.88 -2.36 t2.54 -2.62 q-0.88 -0.26 -1.87 -0.8 t-1.94 -1.29 t-1.77 -1.67 t-1.34 -1.96 q-0.1 -0.16 -0.13 -0.35 t-0.03 -0.37 q0 -0.2 0.12 -0.37 t0.28 -0.3 t0.35 -0.21 t0.33 -0.08 q0.18 0 0.5 0.44 t0.76 1.12 t1 1.5 t1.22 1.57 t1.41 1.34 t1.59 0.79 q0.84 -1.04 1.58 -2.2 t1.56 -2.66 z M39.48 15.34 q0 -0.34 0.25 -0.51 t0.55 -0.2 t0.54 0.08 t0.22 0.33 q-0.04 0.64 -0.12 1.34 t-0.16 1.3 t-0.1 1.01 t0.1 0.45 q0.1 0.04 0.22 -0.15 t0.24 -0.51 t0.25 -0.72 t0.25 -0.8 t0.22 -0.76 t0.18 -0.58 q0.02 -0.3 0.27 -0.37 t0.53 0.01 t0.49 0.24 t0.19 0.34 q-0.08 0.36 -0.15 0.9 t-0.09 1.04 t0.03 0.86 t0.23 0.36 q0.12 0 0.29 -0.31 t0.33 -0.73 t0.3 -0.84 t0.18 -0.64 q0.04 -0.2 0.18 -0.27 t0.28 -0.04 t0.23 0.15 t0.03 0.3 q-0.04 0.16 -0.17 0.6 t-0.34 0.96 t-0.5 1 t-0.65 0.7 q-0.22 0.14 -0.49 0.12 t-0.52 -0.15 t-0.44 -0.38 t-0.25 -0.59 q-0.06 -0.3 -0.06 -0.68 q-0.18 0.56 -0.42 1.06 t-0.56 0.82 q-0.2 0.22 -0.47 0.25 t-0.52 -0.09 t-0.44 -0.35 t-0.25 -0.53 t-0.06 -0.76 t0.03 -1 t0.08 -1.12 t0.07 -1.14 z M44.779999999999994 15.26 q0.08 -0.44 0.38 -0.69 t0.61 -0.34 t0.54 -0.02 t0.17 0.31 q-0.06 0.28 -0.14 0.76 t-0.14 0.98 t-0.1 0.95 t-0.04 0.65 q0.08 -0.28 0.2 -0.58 t0.25 -0.59 t0.27 -0.53 t0.26 -0.38 q0.14 -0.2 0.43 -0.31 t0.54 -0.11 t0.41 0.14 t0.06 0.4 q-0.04 0.12 -0.08 0.46 t-0.08 0.74 q0.12 -0.28 0.32 -0.62 t0.4 -0.65 t0.37 -0.57 t0.27 -0.38 q0.14 -0.2 0.42 -0.33 t0.54 -0.13 t0.44 0.13 t0.16 0.43 q-0.02 0.14 -0.07 0.48 t-0.13 0.78 t-0.15 0.92 t-0.12 0.87 t-0.06 0.65 t0.07 0.26 q0.12 0 0.32 -0.28 t0.39 -0.67 t0.36 -0.81 t0.25 -0.68 q0.06 -0.18 0.19 -0.25 t0.25 -0.04 t0.2 0.14 t0.04 0.29 q-0.06 0.28 -0.27 0.79 t-0.51 1.03 t-0.66 0.94 t-0.74 0.48 q-0.42 0.08 -0.67 -0.1 t-0.36 -0.52 t-0.13 -0.77 t0.02 -0.85 t0.1 -0.75 t0.12 -0.49 q-0.1 0.04 -0.3 0.38 t-0.41 0.75 t-0.39 0.8 t-0.24 0.53 l0 -0.02 q-0.04 0.12 -0.19 0.27 t-0.35 0.24 t-0.37 0.09 t-0.23 -0.2 t-0.08 -0.55 t-0.02 -0.68 t0.01 -0.6 t-0.01 -0.33 q-0.1 0.04 -0.22 0.36 t-0.25 0.72 t-0.23 0.82 t-0.14 0.66 q-0.04 0.26 -0.27 0.39 t-0.5 0.13 t-0.48 -0.14 t-0.19 -0.44 q0.02 -0.34 -0.01 -0.91 t-0.06 -1.19 t-0.03 -1.22 t0.06 -1 z"/></g><g id="SvgjsG1342" featureKey="RFbU7s-0" transform="matrix(0.7183993646480229,0,0,0.7183993646480229,34.42528002869827,82.86202018031784)" fill="#000"><path d="M10.6 6 l0 2.42 l-3.6 0 l0 11.58 l-2.62 0 l0 -11.58 l-3.58 0 l0 -2.42 l9.8 0 z M36.708 6 l2.62 0 l0 14 l-2.62 0 l0 -5.76 l-6 0 l0 5.76 l-2.62 0 l0 -14 l2.62 0 l0 5.82 l6 0 l0 -5.82 z M59.836000000000006 17.58 l6.1 0 l0 2.42 l-6.5 0 l-2.22 0 l0 -14 l2.62 0 l5.92 0 l0 2.42 l-5.92 0 l0 3.36 l4.5 0 l0 2.36 l-4.5 0 l0 3.44 z M115.852 20 l-2.78 0 l-3.12 -4.76 l-0.12 0 l-2.2 0 l0 4.76 l-2.62 0 l0 -14 l4.82 0 c3.14 0 5.12 1.92 5.12 4.7 c0 1.94 -0.96 3.38 -2.6 4.08 z M107.632 8.42 l0 4.56 l2.06 0 c1.58 0 2.64 -0.68 2.64 -2.28 c0 -1.58 -1.06 -2.28 -2.64 -2.28 l-2.06 0 z M135.76 17.58 l6.1 0 l0 2.42 l-6.5 0 l-2.22 0 l0 -14 l2.62 0 l5.92 0 l0 2.42 l-5.92 0 l0 3.36 l4.5 0 l0 2.36 l-4.5 0 l0 3.44 z M163.968 5.76 c2.38 0 3.96 1.52 4.66 2.9 l-1.94 1.14 c-0.74 -1.1 -1.54 -1.72 -2.72 -1.72 c-1.12 0 -1.92 0.66 -1.92 1.56 c0 0.86 0.52 1.36 1.72 1.8 l0.96 0.36 c2.98 1.06 4.28 2.36 4.28 4.36 c0 2.72 -2.58 4.14 -4.96 4.14 c-2.5 0 -4.46 -1.48 -5.1 -3.44 l2.02 -1.06 c0.5 1.12 1.44 2.12 3.08 2.12 c1.24 0 2.24 -0.6 2.24 -1.72 c0 -1.14 -0.72 -1.64 -2.28 -2.22 l-0.9 -0.32 c-2.08 -0.76 -3.66 -1.8 -3.66 -4.12 c0 -2.2 2.02 -3.78 4.52 -3.78 z M195.196 6 l0 2.42 l-3.6 0 l0 11.58 l-2.62 0 l0 -11.58 l-3.58 0 l0 -2.42 l9.8 0 z M220.72400000000002 6 l2.62 0 l0 8.92 c0 3.4 -2.42 5.38 -5.32 5.38 c-2.92 0 -5.34 -1.98 -5.34 -5.38 l0 -8.92 l2.62 0 l0 8.92 c0 2.2 1.4 2.92 2.72 2.92 s2.7 -0.72 2.7 -2.92 l0 -8.92 z M252.072 20 l-2.78 0 l-3.12 -4.76 l-0.12 0 l-2.2 0 l0 4.76 l-2.62 0 l0 -14 l4.82 0 c3.14 0 5.12 1.92 5.12 4.7 c0 1.94 -0.96 3.38 -2.6 4.08 z M243.852 8.42 l0 4.56 l2.06 0 c1.58 0 2.64 -0.68 2.64 -2.28 c0 -1.58 -1.06 -2.28 -2.64 -2.28 l-2.06 0 z M271.98 17.58 l6.1 0 l0 2.42 l-6.5 0 l-2.22 0 l0 -14 l2.62 0 l5.92 0 l0 2.42 l-5.92 0 l0 3.36 l4.5 0 l0 2.36 l-4.5 0 l0 3.44 z M304.968 6 l2.62 0 l0 14 l-2 0 l-7.3 -9.22 l0 9.22 l-2.62 0 l0 -14 l2.02 0 l7.28 9.24 l0 -9.24 z M334.87600000000003 6 l0 2.42 l-3.6 0 l0 11.58 l-2.62 0 l0 -11.58 l-3.58 0 l0 -2.42 l9.8 0 z"/></g>
			</g>
		</svg>
	